<svg width="120" height="105" viewBox="0 0 120 105" fill="none" xmlns="http://www.w3.org/2000/svg">
<g id="Group">
<path id="Vector" d="M60 105L32.1081 77.1297L0 60.6019L5.18919 24.6297L0 0.162109L60 11.9908V105Z" fill="#61D8DE"/>
<path id="Vector_2" d="M60 104.838L87.8919 76.9677L120 60.6019L114.811 24.6297L120 0.162109L60 11.9908V104.838Z" fill="#4CC8C0"/>
<path id="Vector_3" d="M119.838 59.4676L74.7568 14.9074L119.838 0L114.973 25.2778L119.838 59.4676Z" fill="#36C1BF"/>
<path id="Vector_4" d="M0.323242 59.4676L45.5665 14.7454L0.323242 0L5.35027 25.2778L0.323242 59.4676Z" fill="#36C1BF"/>
<path id="Vector_5" d="M114.81 24.9536C113.999 25.1156 74.918 15.2314 74.918 15.2314L119.513 0.323975L114.81 24.9536Z" fill="#22ACA7"/>
<path id="Vector_6" d="M5.35211 25.1157C6.16292 25.2778 45.244 15.3935 45.244 15.3935L0.649414 0.486084L5.35211 25.1157Z" fill="#22ACA7"/>
<path id="Vector_7" d="M68.9189 96.0879L60 90.0925L51.0811 96.0879L60 104.838L68.9189 96.0879Z" fill="#B1DCE3"/>
</g>
</svg>
