<svg width="136" height="21" viewBox="0 0 136 21" fill="none" xmlns="http://www.w3.org/2000/svg">
<g id="Group">
<g id="Group_2">
<path id="Vector" d="M11.7399 20.1662L6.6656 15.0789L0.824219 12.062L1.76828 5.4958L0.824219 1.0296L11.7399 3.18876V20.1662Z" fill="#61D8DE"/>
<path id="Vector_2" d="M11.7402 20.1366L16.8146 15.0493L22.6559 12.062L21.7119 5.4958L22.6559 1.0296L11.7402 3.18876V20.1366Z" fill="#4CC8C0"/>
<path id="Vector_3" d="M22.6263 11.8549L14.4248 3.72113L22.6263 1L21.7413 5.61408L22.6263 11.8549Z" fill="#36C1BF"/>
<path id="Vector_4" d="M0.882812 11.8549L9.11385 3.69155L0.882812 1L1.79737 5.61408L0.882812 11.8549Z" fill="#36C1BF"/>
<path id="Vector_5" d="M21.7116 5.55491C21.5641 5.58449 14.4541 3.78027 14.4541 3.78027L22.5671 1.05914L21.7116 5.55491Z" fill="#22ACA7"/>
<path id="Vector_6" d="M1.79794 5.58452C1.94545 5.6141 9.05541 3.80987 9.05541 3.80987L0.942383 1.08875L1.79794 5.58452Z" fill="#22ACA7"/>
<path id="Vector_7" d="M13.3624 18.5394L11.7398 17.4451L10.1172 18.5394L11.7398 20.1366L13.3624 18.5394Z" fill="#B1DCE3"/>
</g>
<g id="Group_3">
<path id="Vector_8" d="M45.7554 16.1817L45.7259 8.28452L41.8906 14.7028H40.032L36.2263 8.49156V16.1817H32.332V1.27466H35.7838L41.0056 9.8817L46.1094 1.27466H49.5611L49.5906 16.1817H45.7554Z" fill="#202020"/>
<path id="Vector_9" d="M63.4564 11.4197H55.0779C55.4319 12.6028 56.4055 13.2831 57.9101 13.2831C59.0312 13.2831 59.7687 12.9578 60.5653 12.2775L62.6894 14.4958C61.5978 15.738 59.9752 16.3592 57.7921 16.3592C53.6913 16.3592 51.0361 13.8155 51.0361 10.3845C51.0361 6.92396 53.7208 4.43945 57.379 4.43945C60.7718 4.43945 63.5449 6.59861 63.5449 10.4141C63.5154 10.7395 63.4859 11.124 63.4564 11.4197ZM55.0189 9.29016H59.7392C59.5327 8.07748 58.6476 7.30847 57.379 7.30847C56.14 7.30847 55.2549 8.07748 55.0189 9.29016Z" fill="#202020"/>
<path id="Vector_10" d="M75.2278 9.76338V16.1817H71.481V14.7028C70.9205 15.7972 69.7699 16.3887 68.0883 16.3887C65.3151 16.3887 63.8105 14.8211 63.8105 12.8394C63.8105 10.7099 65.3742 9.37888 68.9439 9.37888H71.245C71.186 8.19578 70.3895 7.54507 68.7964 7.54507C67.7048 7.54507 66.4657 7.92958 65.6692 8.55071L64.3121 5.8C65.6397 4.91268 67.5868 4.46902 69.3864 4.46902C73.0742 4.43944 75.2278 6.09578 75.2278 9.76338ZM71.186 12.4845V11.4789H69.4454C68.1473 11.4789 67.6753 11.9521 67.6753 12.662C67.6753 13.3423 68.2358 13.8451 69.1799 13.8451C70.0945 13.8155 70.8615 13.4014 71.186 12.4845Z" fill="#202020"/>
<path id="Vector_11" d="M77.1455 0.387329H81.1873V16.1817H77.1455V0.387329Z" fill="#202020"/>
<path id="Vector_12" d="M83.3408 1.27466H90.3623C95.2891 1.27466 98.6818 4.14367 98.6818 8.72818C98.6818 13.3127 95.3186 16.1817 90.3623 16.1817H83.3408V1.27466ZM90.2148 12.8099C92.7519 12.8099 94.4335 11.3014 94.4335 8.72818C94.4335 6.15494 92.7224 4.64649 90.2148 4.64649H87.5596V12.8394H90.2148V12.8099Z" fill="#202020"/>
<path id="Vector_13" d="M107.769 4.43945V8.07748C107.415 8.0479 107.149 8.01833 106.854 8.01833C105.231 8.01833 104.081 8.8465 104.081 10.8578V16.1521H100.039V4.61692H103.874V6.00706C104.73 4.97185 106.057 4.43945 107.769 4.43945Z" fill="#202020"/>
<path id="Vector_14" d="M107.945 10.3845C107.945 6.92396 110.689 4.43945 114.436 4.43945C118.241 4.43945 120.926 6.92396 120.926 10.3845C120.926 13.8747 118.241 16.3592 114.436 16.3592C110.689 16.3592 107.945 13.8747 107.945 10.3845ZM116.884 10.3845C116.884 8.63945 115.852 7.6634 114.465 7.6634C113.108 7.6634 112.046 8.63945 112.046 10.3845C112.046 12.1592 113.108 13.1648 114.465 13.1648C115.852 13.1648 116.884 12.1592 116.884 10.3845Z" fill="#202020"/>
<path id="Vector_15" d="M135.087 10.4141C135.087 14.0817 132.55 16.3888 129.423 16.3888C128.095 16.3888 127.003 15.9747 126.207 15.1761V20.3226H122.165V4.6465H126V5.80002C126.767 4.88312 127.888 4.46903 129.393 4.46903C132.55 4.43945 135.087 6.7465 135.087 10.4141ZM131.016 10.4141C131.016 8.66903 129.954 7.6634 128.596 7.6634C127.239 7.6634 126.177 8.66903 126.177 10.4141C126.177 12.1592 127.239 13.1648 128.596 13.1648C129.954 13.1648 131.016 12.1592 131.016 10.4141Z" fill="#202020"/>
</g>
</g>
</svg>
