<svg width="136" height="21" viewBox="0 0 136 21" fill="none" xmlns="http://www.w3.org/2000/svg">
<g id="Group">
<g id="Group_2">
<path id="Vector" d="M11.7399 20.1662L6.6656 15.0788L0.824219 12.0619L1.76828 5.49574L0.824219 1.02954L11.7399 3.1887V20.1662Z" fill="#61D8DE"/>
<path id="Vector_2" d="M11.7402 20.1366L16.8146 15.0493L22.6559 12.0619L21.7119 5.49574L22.6559 1.02954L11.7402 3.1887V20.1366Z" fill="#4CC8C0"/>
<path id="Vector_3" d="M22.6263 11.8549L14.4248 3.72113L22.6263 1L21.7413 5.61408L22.6263 11.8549Z" fill="#36C1BF"/>
<path id="Vector_4" d="M0.882812 11.8549L9.11385 3.69155L0.882812 1L1.79737 5.61408L0.882812 11.8549Z" fill="#36C1BF"/>
<path id="Vector_5" d="M21.7116 5.55485C21.5641 5.58443 14.4541 3.78021 14.4541 3.78021L22.5671 1.05908L21.7116 5.55485Z" fill="#22ACA7"/>
<path id="Vector_6" d="M1.79794 5.5844C1.94545 5.61398 9.05541 3.80975 9.05541 3.80975L0.942383 1.08862L1.79794 5.5844Z" fill="#22ACA7"/>
<path id="Vector_7" d="M13.3624 18.5394L11.7398 17.4451L10.1172 18.5394L11.7398 20.1366L13.3624 18.5394Z" fill="#B1DCE3"/>
</g>
<g id="Group_3">
<path id="Vector_8" d="M45.7554 16.1815L45.7259 8.28427L41.8906 14.7026H40.032L36.2263 8.49132V16.1815H32.332V1.27441H35.7838L41.0056 9.88146L46.1094 1.27441H49.5611L49.5906 16.1815H45.7554Z" fill="#202020"/>
<path id="Vector_9" d="M63.4564 11.4195H55.0779C55.4319 12.6026 56.4055 13.2829 57.9101 13.2829C59.0312 13.2829 59.7687 12.9575 60.5653 12.2772L62.6894 14.4955C61.5978 15.7378 59.9752 16.3589 57.7921 16.3589C53.6913 16.3589 51.0361 13.8153 51.0361 10.3843C51.0361 6.92372 53.7208 4.43921 57.379 4.43921C60.7718 4.43921 63.5449 6.59836 63.5449 10.4139C63.5154 10.7392 63.4859 11.1237 63.4564 11.4195ZM55.0189 9.28991H59.7392C59.5327 8.07724 58.6476 7.30822 57.379 7.30822C56.14 7.30822 55.2549 8.07724 55.0189 9.28991Z" fill="#202020"/>
<path id="Vector_10" d="M75.2278 9.76326V16.1816H71.481V14.7027C70.9205 15.7971 69.7699 16.3886 68.0883 16.3886C65.3151 16.3886 63.8105 14.821 63.8105 12.8393C63.8105 10.7097 65.3742 9.37875 68.9439 9.37875H71.245C71.186 8.19566 70.3895 7.54495 68.7964 7.54495C67.7048 7.54495 66.4657 7.92946 65.6692 8.55058L64.3121 5.79988C65.6397 4.91256 67.5868 4.46889 69.3864 4.46889C73.0742 4.43932 75.2278 6.09565 75.2278 9.76326ZM71.186 12.4844V11.4788H69.4454C68.1473 11.4788 67.6753 11.952 67.6753 12.6619C67.6753 13.3421 68.2358 13.845 69.1799 13.845C70.0945 13.8154 70.8615 13.4013 71.186 12.4844Z" fill="#202020"/>
<path id="Vector_11" d="M77.1455 0.387207H81.1873V16.1816H77.1455V0.387207Z" fill="#202020"/>
<path id="Vector_12" d="M83.3408 1.27441H90.3623C95.2891 1.27441 98.6818 4.14343 98.6818 8.72793C98.6818 13.3124 95.3186 16.1815 90.3623 16.1815H83.3408V1.27441ZM90.2148 12.8096C92.7519 12.8096 94.4335 11.3012 94.4335 8.72793C94.4335 6.15469 92.7224 4.64625 90.2148 4.64625H87.5596V12.8392H90.2148V12.8096Z" fill="#202020"/>
<path id="Vector_13" d="M107.769 4.43921V8.07724C107.415 8.04766 107.149 8.01808 106.854 8.01808C105.231 8.01808 104.081 8.84625 104.081 10.8575V16.1519H100.039V4.61667H103.874V6.00681C104.73 4.9716 106.057 4.43921 107.769 4.43921Z" fill="#202020"/>
<path id="Vector_14" d="M107.945 10.3843C107.945 6.92372 110.689 4.43921 114.436 4.43921C118.241 4.43921 120.926 6.92372 120.926 10.3843C120.926 13.8744 118.241 16.3589 114.436 16.3589C110.689 16.3589 107.945 13.8744 107.945 10.3843ZM116.884 10.3843C116.884 8.63921 115.852 7.66315 114.465 7.66315C113.108 7.66315 112.046 8.63921 112.046 10.3843C112.046 12.1589 113.108 13.1646 114.465 13.1646C115.852 13.1646 116.884 12.1589 116.884 10.3843Z" fill="#202020"/>
<path id="Vector_15" d="M135.087 10.4139C135.087 14.0815 132.55 16.3885 129.423 16.3885C128.095 16.3885 127.003 15.9744 126.207 15.1758V20.3223H122.165V4.64625H126V5.79977C126.767 4.88287 127.888 4.46879 129.393 4.46879C132.55 4.43921 135.087 6.74625 135.087 10.4139ZM131.016 10.4139C131.016 8.66879 129.954 7.66315 128.596 7.66315C127.239 7.66315 126.177 8.66879 126.177 10.4139C126.177 12.1589 127.239 13.1646 128.596 13.1646C129.954 13.1646 131.016 12.1589 131.016 10.4139Z" fill="#202020"/>
</g>
</g>
</svg>
